# Blender v3.2.1 OBJ File: 'Vertical Drawer.blend'
# www.blender.org
mtllib Mueble.mtl
o Cube_Cube.001
v -0.117583 0.579798 0.397274
v -0.117583 0.611356 0.397274
v -0.117583 0.579798 0.369414
v -0.117583 0.611356 0.369414
v 0.117583 0.579798 0.397274
v 0.117583 0.611356 0.397274
v 0.117583 0.579798 0.369414
v 0.117583 0.611356 0.369414
v 0.075540 0.579798 0.394095
v -0.075540 0.579798 0.394095
v -0.075540 0.611356 0.394095
v 0.075540 0.611356 0.394095
v -0.075540 0.579798 0.421955
v 0.075540 0.579798 0.421955
v 0.075540 0.611356 0.421955
v -0.075540 0.611356 0.421955
v 0.044905 0.602716 0.395909
v 0.044905 0.602716 0.351021
v -0.049104 0.602716 0.351021
v -0.049104 0.602716 0.395909
v -0.041072 0.599389 0.351021
v -0.041072 0.599389 0.395909
v -0.037745 0.591357 0.351021
v -0.037745 0.591357 0.395909
v -0.041072 0.583326 0.351021
v -0.041072 0.583326 0.395909
v -0.049104 0.579999 0.351021
v -0.049104 0.579999 0.395909
v -0.057136 0.583326 0.351021
v -0.057136 0.583326 0.395909
v -0.060463 0.591357 0.351021
v -0.060463 0.591357 0.395909
v -0.057136 0.599389 0.351021
v -0.057136 0.599389 0.395909
v 0.052937 0.599389 0.351021
v 0.052937 0.599389 0.395909
v 0.056264 0.591357 0.351021
v 0.056264 0.591357 0.395909
v 0.052937 0.583326 0.351021
v 0.052937 0.583326 0.395909
v 0.044905 0.579999 0.351021
v 0.044905 0.579999 0.395909
v 0.036873 0.583326 0.351021
v 0.036873 0.583326 0.395909
v 0.033546 0.591357 0.351021
v 0.033546 0.591357 0.395909
v 0.036873 0.599389 0.351021
v 0.036873 0.599389 0.395909
v -0.388814 0.020882 0.381814
v -0.388814 1.566821 0.381814
v -0.388814 0.020882 -0.381815
v -0.388814 1.566821 -0.381815
v 0.388814 0.020882 0.381814
v 0.388814 1.566821 0.381814
v 0.388814 0.020882 -0.381815
v 0.388814 1.566821 -0.381815
v -0.388814 0.758378 0.381814
v -0.388814 0.778281 0.381814
v -0.388814 0.778281 -0.381815
v -0.388814 0.758378 -0.381815
v 0.388814 0.778281 -0.381815
v 0.388814 0.758378 -0.381815
v 0.388814 0.778281 0.381814
v 0.388814 0.758378 0.381814
v -0.388814 1.087227 0.381814
v -0.388814 1.107930 0.381814
v -0.388814 1.107930 -0.381815
v -0.388814 1.087227 -0.381815
v 0.388814 1.107930 -0.381815
v 0.388814 1.087227 -0.381815
v 0.388814 1.107930 0.381814
v 0.388814 1.087227 0.381814
v -0.388814 0.093127 -0.381815
v -0.388814 0.070403 -0.381815
v 0.388814 0.093127 -0.381815
v 0.388814 0.070403 -0.381815
v 0.388814 0.093127 0.381814
v 0.388814 0.070403 0.381814
v -0.388814 0.070403 0.381814
v -0.388814 0.093127 0.381814
v -0.388814 1.454485 0.381814
v -0.388814 1.478682 0.381814
v -0.388814 1.478682 -0.381815
v -0.388814 1.454485 -0.381815
v 0.388814 1.478682 -0.381815
v 0.388814 1.454485 -0.381815
v 0.388814 1.478682 0.381814
v 0.388814 1.454485 0.381814
v -0.388814 0.413365 0.381814
v -0.388814 0.438141 0.381814
v -0.388814 0.438141 -0.381815
v -0.388814 0.413365 -0.381815
v 0.388814 0.438141 -0.381815
v 0.388814 0.413365 -0.381815
v 0.388814 0.438141 0.381814
v 0.388814 0.413365 0.381814
v 0.363465 0.020882 -0.381815
v -0.363465 0.020882 -0.381815
v -0.363465 1.566821 -0.381815
v 0.363465 1.566821 -0.381815
v -0.363465 0.020882 0.381814
v 0.363465 0.020882 0.381814
v 0.363465 1.566821 0.381814
v -0.363465 1.566821 0.381814
v 0.363465 0.758378 0.381814
v -0.363465 0.758378 0.381814
v 0.363465 0.778281 0.381814
v -0.363465 0.778281 0.381814
v -0.363465 0.758378 -0.381815
v 0.363465 0.758378 -0.381815
v -0.363465 0.778281 -0.381815
v 0.363465 0.778281 -0.381815
v 0.363465 1.087227 0.381814
v -0.363465 1.087227 0.381814
v 0.363465 1.107930 0.381814
v -0.363465 1.107930 0.381814
v -0.363465 1.087227 -0.381815
v 0.363465 1.087227 -0.381815
v -0.363465 1.107930 -0.381815
v 0.363465 1.107930 -0.381815
v -0.363465 0.070403 -0.381815
v 0.363465 0.070403 -0.381815
v -0.363465 0.093127 -0.381815
v 0.363465 0.093127 -0.381815
v 0.363465 0.070403 0.381814
v -0.363465 0.070403 0.381814
v 0.363465 0.093127 0.381814
v -0.363465 0.093127 0.381814
v 0.363465 1.454485 0.381814
v -0.363465 1.454485 0.381814
v 0.363465 1.478682 0.381814
v -0.363465 1.478682 0.381814
v -0.363465 1.454485 -0.381815
v 0.363465 1.454485 -0.381815
v -0.363465 1.478682 -0.381815
v 0.363465 1.478682 -0.381815
v -0.363465 0.413365 -0.381815
v 0.363465 0.413365 -0.381815
v -0.363465 0.438141 -0.381815
v 0.363465 0.438141 -0.381815
v 0.363465 0.413365 0.381814
v -0.363465 0.413365 0.381814
v 0.363465 0.438141 0.381814
v -0.363465 0.438141 0.381814
v 0.363465 0.758378 0.353444
v -0.363465 0.758378 0.353444
v 0.363465 0.778281 0.353444
v -0.363465 0.778281 0.353444
v 0.363465 1.087227 0.353444
v -0.363465 1.087227 0.353444
v 0.363465 1.107930 0.353444
v -0.363465 1.107930 0.353444
v 0.363465 0.070403 0.353444
v -0.363465 0.070403 0.353444
v 0.363465 0.093127 0.353444
v -0.363465 0.093127 0.353444
v 0.363465 1.454485 0.353444
v -0.363465 1.454485 0.353444
v 0.363465 1.478682 0.353444
v -0.363465 1.478682 0.353444
v 0.363465 0.413365 0.353444
v -0.363465 0.413365 0.353444
v 0.363465 0.438141 0.353444
v -0.363465 0.438141 0.353444
v 0.363465 0.758378 0.327547
v -0.363465 0.758378 0.327547
v 0.363465 0.778281 0.327547
v -0.363465 0.778281 0.327547
v 0.363465 1.087227 0.327547
v -0.363465 1.087227 0.327547
v 0.363465 1.107930 0.327547
v -0.363465 1.107930 0.327547
v 0.363465 1.454485 0.327547
v -0.363465 1.454485 0.327547
v 0.363465 1.478682 0.327547
v -0.363465 1.478682 0.327547
v 0.363465 0.413365 0.327547
v -0.363465 0.413365 0.327547
v 0.363465 0.438141 0.327547
v -0.363465 0.438141 0.327547
v -0.388814 0.020882 -0.364046
v -0.388814 0.020882 0.364046
v -0.388814 1.566821 0.364046
v -0.388814 1.566821 -0.364046
v 0.388814 0.020882 0.364046
v 0.388814 0.020882 -0.364046
v 0.388814 1.566821 -0.364046
v 0.388814 1.566821 0.364046
v 0.388814 0.758378 -0.364046
v 0.388814 0.758378 0.364046
v 0.388814 0.778281 -0.364046
v 0.388814 0.778281 0.364046
v -0.388814 0.758378 0.364046
v -0.388814 0.758378 -0.364046
v -0.388814 0.778281 0.364046
v -0.388814 0.778281 -0.364046
v 0.388814 1.087227 -0.364046
v 0.388814 1.087227 0.364046
v 0.388814 1.107930 -0.364046
v 0.388814 1.107930 0.364046
v -0.388814 1.087227 0.364046
v -0.388814 1.087227 -0.364046
v -0.388814 1.107930 0.364046
v -0.388814 1.107930 -0.364046
v -0.388814 0.070403 0.364046
v -0.388814 0.070403 -0.364046
v -0.388814 0.093127 0.364046
v -0.388814 0.093127 -0.364046
v 0.388814 0.070403 -0.364046
v 0.388814 0.070403 0.364046
v 0.388814 0.093127 -0.364046
v 0.388814 0.093127 0.364046
v 0.388814 1.454485 -0.364046
v 0.388814 1.454485 0.364046
v 0.388814 1.478682 -0.364046
v 0.388814 1.478682 0.364046
v -0.388814 1.454485 0.364046
v -0.388814 1.454485 -0.364046
v -0.388814 1.478682 0.364046
v -0.388814 1.478682 -0.364046
v -0.388814 0.413365 0.364046
v -0.388814 0.413365 -0.364046
v -0.388814 0.438141 0.364046
v -0.388814 0.438141 -0.364046
v 0.388814 0.413365 -0.364046
v 0.388814 0.413365 0.364046
v 0.388814 0.438141 -0.364046
v 0.388814 0.438141 0.364046
v 0.363465 1.566821 -0.364046
v 0.363465 1.566821 0.364046
v -0.363465 1.566821 -0.364046
v -0.363465 1.566821 0.364046
v -0.363465 0.020882 -0.364046
v -0.363465 0.020882 0.364046
v 0.363465 0.020882 -0.364046
v 0.363465 0.020882 0.364046
v 0.368094 0.758378 -0.364046
v 0.368094 0.758378 0.364046
v 0.368094 0.778281 -0.364046
v 0.368094 0.778281 0.364046
v -0.368094 0.758378 0.364046
v -0.368094 0.758378 -0.364046
v -0.368094 0.778281 0.364046
v -0.368094 0.778281 -0.364046
v 0.368094 1.087227 -0.364046
v 0.368094 1.087227 0.364046
v 0.368094 1.107930 -0.364046
v 0.368094 1.107930 0.364046
v -0.368094 1.087227 0.364046
v -0.368094 1.087227 -0.364046
v -0.368094 1.107930 0.364046
v -0.368094 1.107930 -0.364046
v -0.368094 0.070403 0.364046
v -0.368094 0.070403 -0.364046
v -0.368094 0.093127 0.364046
v -0.368094 0.093127 -0.364046
v 0.368094 0.070403 -0.364046
v 0.368094 0.070403 0.364046
v 0.368094 0.093127 -0.364046
v 0.368094 0.093127 0.364046
v 0.368094 1.454485 -0.364046
v 0.368094 1.454485 0.364046
v 0.368094 1.478682 -0.364046
v 0.368094 1.478682 0.364046
v -0.368094 1.454485 0.364046
v -0.368094 1.454485 -0.364046
v -0.368094 1.478682 0.364046
v -0.368094 1.478682 -0.364046
v -0.368094 0.413365 0.364046
v -0.368094 0.413365 -0.364046
v -0.368094 0.438141 0.364046
v -0.368094 0.438141 -0.364046
v 0.368094 0.413365 -0.364046
v 0.368094 0.413365 0.364046
v 0.368094 0.438141 -0.364046
v 0.368094 0.438141 0.364046
v -0.363465 0.758378 -0.361608
v 0.363465 0.758378 -0.361608
v -0.363465 0.778281 -0.361608
v 0.363465 0.778281 -0.361608
v -0.363465 1.087227 -0.361608
v 0.363465 1.087227 -0.361608
v -0.363465 1.107930 -0.361608
v 0.363465 1.107930 -0.361608
v -0.363465 0.070403 -0.361608
v 0.363465 0.070403 -0.361608
v -0.363465 0.093127 -0.361608
v 0.363465 0.093127 -0.361608
v -0.363465 1.454485 -0.361608
v 0.363465 1.454485 -0.361608
v -0.363465 1.478682 -0.361608
v 0.363465 1.478682 -0.361608
v -0.363465 0.413365 -0.361608
v 0.363465 0.413365 -0.361608
v -0.363465 0.438141 -0.361608
v 0.363465 0.438141 -0.361608
v -0.117583 0.915815 0.397274
v -0.117583 0.947373 0.397274
v -0.117583 0.915815 0.369414
v -0.117583 0.947373 0.369414
v 0.117583 0.915815 0.397274
v 0.117583 0.947373 0.397274
v 0.117583 0.915815 0.369414
v 0.117583 0.947373 0.369414
v 0.075540 0.915815 0.394095
v -0.075540 0.915815 0.394095
v -0.075540 0.947373 0.394095
v 0.075540 0.947373 0.394095
v -0.075540 0.915815 0.421955
v 0.075540 0.915815 0.421955
v 0.075540 0.947373 0.421955
v -0.075540 0.947373 0.421955
v 0.044905 0.938733 0.395909
v 0.044905 0.938733 0.351021
v -0.049104 0.938733 0.351021
v -0.049104 0.938733 0.395909
v -0.041072 0.935406 0.351021
v -0.041072 0.935406 0.395909
v -0.037745 0.927374 0.351021
v -0.037745 0.927374 0.395909
v -0.041072 0.919342 0.351021
v -0.041072 0.919342 0.395909
v -0.049104 0.916016 0.351021
v -0.049104 0.916016 0.395909
v -0.057136 0.919342 0.351021
v -0.057136 0.919342 0.395909
v -0.060463 0.927374 0.351021
v -0.060463 0.927374 0.395909
v -0.057136 0.935406 0.351021
v -0.057136 0.935406 0.395909
v 0.052937 0.935406 0.351021
v 0.052937 0.935406 0.395909
v 0.056264 0.927374 0.351021
v 0.056264 0.927374 0.395909
v 0.052937 0.919342 0.351021
v 0.052937 0.919342 0.395909
v 0.044905 0.916016 0.351021
v 0.044905 0.916016 0.395909
v 0.036873 0.919342 0.351021
v 0.036873 0.919342 0.395909
v 0.033546 0.927374 0.351021
v 0.033546 0.927374 0.395909
v 0.036873 0.935406 0.351021
v 0.036873 0.935406 0.395909
v -0.117583 1.266602 0.397274
v -0.117583 1.298160 0.397274
v -0.117583 1.266602 0.369414
v -0.117583 1.298160 0.369414
v 0.117583 1.266602 0.397274
v 0.117583 1.298160 0.397274
v 0.117583 1.266602 0.369414
v 0.117583 1.298160 0.369414
v 0.075540 1.266602 0.394095
v -0.075540 1.266602 0.394095
v -0.075540 1.298160 0.394095
v 0.075540 1.298160 0.394095
v -0.075540 1.266602 0.421955
v 0.075540 1.266602 0.421955
v 0.075540 1.298160 0.421955
v -0.075540 1.298160 0.421955
v 0.044905 1.289520 0.395909
v 0.044905 1.289520 0.351021
v -0.049104 1.289520 0.351021
v -0.049104 1.289520 0.395909
v -0.041072 1.286193 0.351021
v -0.041072 1.286193 0.395909
v -0.037745 1.278161 0.351021
v -0.037745 1.278161 0.395909
v -0.041072 1.270129 0.351021
v -0.041072 1.270129 0.395909
v -0.049104 1.266803 0.351021
v -0.049104 1.266803 0.395909
v -0.057136 1.270129 0.351021
v -0.057136 1.270129 0.395909
v -0.060463 1.278161 0.351021
v -0.060463 1.278161 0.395909
v -0.057136 1.286193 0.351021
v -0.057136 1.286193 0.395909
v 0.052937 1.286193 0.351021
v 0.052937 1.286193 0.395909
v 0.056264 1.278161 0.351021
v 0.056264 1.278161 0.395909
v 0.052937 1.270129 0.351021
v 0.052937 1.270129 0.395909
v 0.044905 1.266803 0.351021
v 0.044905 1.266803 0.395909
v 0.036873 1.270129 0.351021
v 0.036873 1.270129 0.395909
v 0.033546 1.278161 0.351021
v 0.033546 1.278161 0.395909
v 0.036873 1.286193 0.351021
v 0.036873 1.286193 0.395909
v -0.117583 0.234550 0.397274
v -0.117583 0.266108 0.397274
v -0.117583 0.234550 0.369414
v -0.117583 0.266108 0.369414
v 0.117583 0.234550 0.397274
v 0.117583 0.266108 0.397274
v 0.117583 0.234550 0.369414
v 0.117583 0.266108 0.369414
v 0.075540 0.234550 0.394095
v -0.075540 0.234550 0.394095
v -0.075540 0.266108 0.394095
v 0.075540 0.266108 0.394095
v -0.075540 0.234550 0.421955
v 0.075540 0.234550 0.421955
v 0.075540 0.266108 0.421955
v -0.075540 0.266108 0.421955
v 0.044905 0.257468 0.395909
v 0.044905 0.257468 0.351021
v -0.049104 0.257468 0.351021
v -0.049104 0.257468 0.395909
v -0.041072 0.254141 0.351021
v -0.041072 0.254141 0.395909
v -0.037745 0.246109 0.351021
v -0.037745 0.246109 0.395909
v -0.041072 0.238077 0.351021
v -0.041072 0.238077 0.395909
v -0.049104 0.234751 0.351021
v -0.049104 0.234751 0.395909
v -0.057136 0.238077 0.351021
v -0.057136 0.238077 0.395909
v -0.060463 0.246109 0.351021
v -0.060463 0.246109 0.395909
v -0.057136 0.254141 0.351021
v -0.057136 0.254141 0.395909
v 0.052937 0.254141 0.351021
v 0.052937 0.254141 0.395909
v 0.056264 0.246109 0.351021
v 0.056264 0.246109 0.395909
v 0.052937 0.238077 0.351021
v 0.052937 0.238077 0.395909
v 0.044905 0.234751 0.351021
v 0.044905 0.234751 0.395909
v 0.036873 0.238077 0.351021
v 0.036873 0.238077 0.395909
v 0.033546 0.246109 0.351021
v 0.033546 0.246109 0.395909
v 0.036873 0.254141 0.351021
v 0.036873 0.254141 0.395909
vn -1.0000 0.0000 0.0000
vn -0.5062 0.0000 -0.8624
vn 1.0000 0.0000 0.0000
vn -0.5062 0.0000 0.8624
vn 0.0000 -1.0000 0.0000
vn 0.0000 1.0000 0.0000
vn 0.5062 0.0000 0.8624
vn 0.0000 0.0000 1.0000
vn 0.5062 0.0000 -0.8624
vn 0.0000 0.0000 -1.0000
vn 0.3827 0.9239 0.0000
vn -0.3827 0.9239 0.0000
vn 0.9239 0.3827 0.0000
vn -0.9239 0.3827 0.0000
vn 0.9239 -0.3827 0.0000
vn -0.9239 -0.3827 0.0000
vn 0.3827 -0.9239 0.0000
vn -0.3827 -0.9239 0.0000
usemtl Silver
s off
f 1//1 2//1 4//1 3//1
f 9//2 12//2 8//2 7//2
f 7//3 8//3 6//3 5//3
f 13//4 16//4 2//4 1//4
f 9//5 7//5 5//5 14//5
f 11//6 4//6 2//6 16//6
f 8//6 12//6 15//6 6//6
f 12//6 11//6 16//6 15//6
f 3//5 10//5 13//5 1//5
f 10//5 9//5 14//5 13//5
f 5//7 6//7 15//7 14//7
f 14//8 15//8 16//8 13//8
f 3//9 4//9 11//9 10//9
f 10//10 11//10 12//10 9//10
f 19//11 20//11 22//11 21//11
f 47//12 48//12 17//12 18//12
f 21//13 22//13 24//13 23//13
f 45//14 46//14 48//14 47//14
f 23//15 24//15 26//15 25//15
f 43//16 44//16 46//16 45//16
f 25//17 26//17 28//17 27//17
f 41//18 42//18 44//18 43//18
f 27//18 28//18 30//18 29//18
f 39//17 40//17 42//17 41//17
f 29//16 30//16 32//16 31//16
f 35//13 36//13 38//13 37//13
f 37//15 38//15 40//15 39//15
f 31//14 32//14 34//14 33//14
f 33//12 34//12 20//12 19//12
f 18//11 17//11 36//11 35//11
f 220//1 184//1 52//1 83//1
f 136//10 100//10 56//10 85//10
f 216//3 188//3 54//3 87//3
f 132//8 104//8 50//8 82//8
f 236//5 185//5 53//5 102//5
f 232//6 183//6 50//6 104//6
f 144//8 106//8 57//8 90//8
f 106//8 108//8 58//8 57//8
f 228//3 190//3 64//3 95//3
f 190//3 192//3 63//3 64//3
f 140//10 110//10 62//10 93//10
f 110//10 112//10 61//10 62//10
f 224//1 194//1 60//1 91//1
f 194//1 196//1 59//1 60//1
f 108//8 114//8 65//8 58//8
f 114//8 116//8 66//8 65//8
f 192//3 198//3 72//3 63//3
f 198//3 200//3 71//3 72//3
f 112//10 118//10 70//10 61//10
f 118//10 120//10 69//10 70//10
f 196//1 202//1 68//1 59//1
f 202//1 204//1 67//1 68//1
f 181//1 206//1 74//1 51//1
f 206//1 208//1 73//1 74//1
f 97//10 122//10 76//10 55//10
f 122//10 124//10 75//10 76//10
f 185//3 210//3 78//3 53//3
f 210//3 212//3 77//3 78//3
f 101//8 126//8 79//8 49//8
f 126//8 128//8 80//8 79//8
f 116//8 130//8 81//8 66//8
f 130//8 132//8 82//8 81//8
f 200//3 214//3 88//3 71//3
f 214//3 216//3 87//3 88//3
f 120//10 134//10 86//10 69//10
f 134//10 136//10 85//10 86//10
f 204//1 218//1 84//1 67//1
f 218//1 220//1 83//1 84//1
f 208//1 222//1 92//1 73//1
f 222//1 224//1 91//1 92//1
f 124//10 138//10 94//10 75//10
f 138//10 140//10 93//10 94//10
f 212//3 226//3 96//3 77//3
f 226//3 228//3 95//3 96//3
f 128//8 142//8 89//8 80//8
f 142//8 144//8 90//8 89//8
f 96//8 95//8 143//8 141//8
f 130//3 116//3 152//3 158//3
f 77//8 96//8 141//8 127//8
f 141//1 143//1 163//1 161//1
f 92//10 91//10 139//10 137//10
f 138//1 124//1 288//1 294//1
f 73//10 92//10 137//10 123//10
f 122//6 121//6 285//6 286//6
f 84//10 83//10 135//10 133//10
f 124//1 122//1 286//1 288//1
f 67//10 84//10 133//10 119//10
f 123//3 137//3 293//3 287//3
f 88//8 87//8 131//8 129//8
f 108//3 106//3 146//3 148//3
f 71//8 88//8 129//8 115//8
f 116//3 114//3 150//3 152//3
f 78//8 77//8 127//8 125//8
f 115//1 129//1 157//1 151//1
f 53//8 78//8 125//8 102//8
f 102//8 125//8 126//8 101//8
f 74//10 73//10 123//10 121//10
f 135//5 136//5 292//5 291//5
f 51//10 74//10 121//10 98//10
f 98//10 121//10 122//10 97//10
f 68//10 67//10 119//10 117//10
f 110//1 140//1 296//1 278//1
f 59//10 68//10 117//10 111//10
f 121//3 123//3 287//3 285//3
f 72//8 71//8 115//8 113//8
f 105//1 107//1 147//1 145//1
f 63//8 72//8 113//8 107//8
f 113//1 115//1 151//1 149//1
f 60//10 59//10 111//10 109//10
f 140//1 138//1 294//1 296//1
f 91//10 60//10 109//10 139//10
f 118//1 112//1 280//1 282//1
f 64//8 63//8 107//8 105//8
f 132//3 130//3 158//3 160//3
f 95//8 64//8 105//8 143//8
f 129//1 131//1 159//1 157//1
f 188//6 230//6 103//6 54//6
f 230//6 232//6 104//6 103//6
f 182//5 234//5 101//5 49//5
f 234//5 236//5 102//5 101//5
f 87//8 54//8 103//8 131//8
f 131//8 103//8 104//8 132//8
f 83//10 52//10 99//10 135//10
f 135//10 99//10 100//10 136//10
f 150//6 149//6 169//6 170//6
f 155//8 161//8 162//8 156//8
f 145//1 147//1 167//1 165//1
f 151//8 157//8 158//8 152//8
f 153//8 155//8 156//8 154//8
f 163//5 164//5 180//5 179//5
f 147//8 149//8 150//8 148//8
f 147//5 148//5 168//5 167//5
f 163//8 145//8 146//8 164//8
f 107//1 113//1 149//1 147//1
f 143//1 105//1 145//1 163//1
f 144//3 142//3 162//3 164//3
f 125//1 127//1 155//1 153//1
f 114//3 108//3 148//3 150//3
f 131//5 132//5 160//5 159//5
f 106//3 144//3 164//3 146//3
f 127//1 141//1 161//1 155//1
f 128//3 126//3 154//3 156//3
f 142//3 128//3 156//3 162//3
f 126//6 125//6 153//6 154//6
f 177//8 179//8 180//8 178//8
f 173//8 175//8 176//8 174//8
f 169//8 171//8 172//8 170//8
f 165//8 167//8 168//8 166//8
f 161//1 163//1 179//1 177//1
f 148//3 146//3 166//3 168//3
f 151//5 152//5 172//5 171//5
f 164//3 162//3 178//3 180//3
f 149//1 151//1 171//1 169//1
f 158//6 157//6 173//6 174//6
f 152//3 150//3 170//3 172//3
f 157//1 159//1 175//1 173//1
f 159//5 160//5 176//5 175//5
f 146//6 145//6 165//6 166//6
f 160//3 158//3 174//3 176//3
f 162//6 161//6 177//6 178//6
f 98//5 97//5 235//5 233//5
f 233//5 235//5 236//5 234//5
f 51//5 98//5 233//5 181//5
f 181//5 233//5 234//5 182//5
f 100//6 99//6 231//6 229//6
f 229//6 231//6 232//6 230//6
f 56//6 100//6 229//6 187//6
f 187//6 229//6 230//6 188//6
f 94//3 93//3 227//3 225//3
f 205//10 207//10 255//10 253//10
f 75//3 94//3 225//3 211//3
f 196//8 194//8 242//8 244//8
f 89//1 90//1 223//1 221//1
f 207//10 221//10 269//10 255//10
f 80//1 89//1 221//1 207//1
f 210//6 209//6 257//6 258//6
f 81//1 82//1 219//1 217//1
f 193//10 195//10 243//10 241//10
f 66//1 81//1 217//1 203//1
f 224//8 222//8 270//8 272//8
f 86//3 85//3 215//3 213//3
f 198//10 192//10 240//10 246//10
f 69//3 86//3 213//3 199//3
f 221//10 223//10 271//10 269//10
f 76//3 75//3 211//3 209//3
f 212//10 210//10 258//10 260//10
f 55//3 76//3 209//3 186//3
f 186//3 209//3 210//3 185//3
f 79//1 80//1 207//1 205//1
f 191//8 197//8 245//8 239//8
f 49//1 79//1 205//1 182//1
f 182//1 205//1 206//1 181//1
f 65//1 66//1 203//1 201//1
f 226//10 212//10 260//10 274//10
f 58//1 65//1 201//1 195//1
f 209//8 211//8 259//8 257//8
f 70//3 69//3 199//3 197//3
f 200//10 198//10 246//10 248//10
f 61//3 70//3 197//3 191//3
f 211//8 225//8 273//8 259//8
f 57//1 58//1 195//1 193//1
f 219//5 220//5 268//5 267//5
f 90//1 57//1 193//1 223//1
f 214//10 200//10 248//10 262//10
f 62//3 61//3 191//3 189//3
f 206//6 205//6 253//6 254//6
f 93//3 62//3 189//3 227//3
f 197//8 199//8 247//8 245//8
f 99//6 52//6 184//6 231//6
f 231//6 184//6 183//6 232//6
f 97//5 55//5 186//5 235//5
f 235//5 186//5 185//5 236//5
f 85//3 56//3 187//3 215//3
f 215//3 187//3 188//3 216//3
f 82//1 50//1 183//1 219//1
f 219//1 183//1 184//1 220//1
f 273//3 275//3 276//3 274//3
f 259//3 273//3 274//3 260//3
f 269//1 271//1 272//1 270//1
f 255//1 269//1 270//1 256//1
f 265//1 267//1 268//1 266//1
f 251//1 265//1 266//1 252//1
f 261//3 263//3 264//3 262//3
f 247//3 261//3 262//3 248//3
f 257//3 259//3 260//3 258//3
f 253//1 255//1 256//1 254//1
f 249//1 251//1 252//1 250//1
f 243//1 249//1 250//1 244//1
f 245//3 247//3 248//3 246//3
f 239//3 245//3 246//3 240//3
f 241//1 243//1 244//1 242//1
f 271//1 241//1 242//1 272//1
f 237//3 239//3 240//3 238//3
f 275//3 237//3 238//3 276//3
f 222//8 208//8 256//8 270//8
f 223//10 193//10 241//10 271//10
f 208//8 206//8 254//8 256//8
f 217//10 219//10 267//10 265//10
f 194//8 224//8 272//8 242//8
f 220//8 218//8 266//8 268//8
f 189//8 191//8 239//8 237//8
f 203//10 217//10 265//10 251//10
f 192//10 190//10 238//10 240//10
f 201//10 203//10 251//10 249//10
f 218//8 204//8 252//8 266//8
f 227//8 189//8 237//8 275//8
f 215//5 216//5 264//5 263//5
f 204//8 202//8 250//8 252//8
f 213//8 215//8 263//8 261//8
f 190//10 228//10 276//10 238//10
f 195//10 201//10 249//10 243//10
f 216//10 214//10 262//10 264//10
f 225//8 227//8 275//8 273//8
f 202//8 196//8 244//8 250//8
f 199//8 213//8 261//8 247//8
f 228//10 226//10 274//10 276//10
f 293//10 295//10 296//10 294//10
f 287//10 293//10 294//10 288//10
f 289//10 291//10 292//10 290//10
f 283//10 289//10 290//10 284//10
f 285//10 287//10 288//10 286//10
f 281//10 283//10 284//10 282//10
f 279//10 281//10 282//10 280//10
f 277//10 279//10 280//10 278//10
f 295//10 277//10 278//10 296//10
f 133//3 135//3 291//3 289//3
f 136//1 134//1 290//1 292//1
f 117//3 119//3 283//3 281//3
f 109//3 111//3 279//3 277//3
f 119//3 133//3 289//3 283//3
f 120//1 118//1 282//1 284//1
f 112//1 110//1 278//1 280//1
f 134//1 120//1 284//1 290//1
f 111//3 117//3 281//3 279//3
f 137//3 139//3 295//3 293//3
f 139//3 109//3 277//3 295//3
f 297//1 298//1 300//1 299//1
f 305//2 308//2 304//2 303//2
f 303//3 304//3 302//3 301//3
f 309//4 312//4 298//4 297//4
f 305//5 303//5 301//5 310//5
f 307//6 300//6 298//6 312//6
f 304//6 308//6 311//6 302//6
f 308//6 307//6 312//6 311//6
f 299//5 306//5 309//5 297//5
f 306//5 305//5 310//5 309//5
f 301//7 302//7 311//7 310//7
f 310//8 311//8 312//8 309//8
f 299//9 300//9 307//9 306//9
f 306//10 307//10 308//10 305//10
f 315//11 316//11 318//11 317//11
f 343//12 344//12 313//12 314//12
f 317//13 318//13 320//13 319//13
f 341//14 342//14 344//14 343//14
f 319//15 320//15 322//15 321//15
f 339//16 340//16 342//16 341//16
f 321//17 322//17 324//17 323//17
f 337//18 338//18 340//18 339//18
f 323//18 324//18 326//18 325//18
f 335//17 336//17 338//17 337//17
f 325//16 326//16 328//16 327//16
f 331//13 332//13 334//13 333//13
f 333//15 334//15 336//15 335//15
f 327//14 328//14 330//14 329//14
f 329//12 330//12 316//12 315//12
f 314//11 313//11 332//11 331//11
f 345//1 346//1 348//1 347//1
f 353//2 356//2 352//2 351//2
f 351//3 352//3 350//3 349//3
f 357//4 360//4 346//4 345//4
f 353//5 351//5 349//5 358//5
f 355//6 348//6 346//6 360//6
f 352//6 356//6 359//6 350//6
f 356//6 355//6 360//6 359//6
f 347//5 354//5 357//5 345//5
f 354//5 353//5 358//5 357//5
f 349//7 350//7 359//7 358//7
f 358//8 359//8 360//8 357//8
f 347//9 348//9 355//9 354//9
f 354//10 355//10 356//10 353//10
f 363//11 364//11 366//11 365//11
f 391//12 392//12 361//12 362//12
f 365//13 366//13 368//13 367//13
f 389//14 390//14 392//14 391//14
f 367//15 368//15 370//15 369//15
f 387//16 388//16 390//16 389//16
f 369//17 370//17 372//17 371//17
f 385//18 386//18 388//18 387//18
f 371//18 372//18 374//18 373//18
f 383//17 384//17 386//17 385//17
f 373//16 374//16 376//16 375//16
f 379//13 380//13 382//13 381//13
f 381//15 382//15 384//15 383//15
f 375//14 376//14 378//14 377//14
f 377//12 378//12 364//12 363//12
f 362//11 361//11 380//11 379//11
f 393//1 394//1 396//1 395//1
f 401//2 404//2 400//2 399//2
f 399//3 400//3 398//3 397//3
f 405//4 408//4 394//4 393//4
f 401//5 399//5 397//5 406//5
f 403//6 396//6 394//6 408//6
f 400//6 404//6 407//6 398//6
f 404//6 403//6 408//6 407//6
f 395//5 402//5 405//5 393//5
f 402//5 401//5 406//5 405//5
f 397//7 398//7 407//7 406//7
f 406//8 407//8 408//8 405//8
f 395//9 396//9 403//9 402//9
f 402//10 403//10 404//10 401//10
f 411//11 412//11 414//11 413//11
f 439//12 440//12 409//12 410//12
f 413//13 414//13 416//13 415//13
f 437//14 438//14 440//14 439//14
f 415//15 416//15 418//15 417//15
f 435//16 436//16 438//16 437//16
f 417//17 418//17 420//17 419//17
f 433//18 434//18 436//18 435//18
f 419//18 420//18 422//18 421//18
f 431//17 432//17 434//17 433//17
f 421//16 422//16 424//16 423//16
f 427//13 428//13 430//13 429//13
f 429//15 430//15 432//15 431//15
f 423//14 424//14 426//14 425//14
f 425//12 426//12 412//12 411//12
f 410//11 409//11 428//11 427//11
